<svg width="51" height="49" viewBox="0 0 51 49" fill="none" xmlns="http://www.w3.org/2000/svg">
<path d="M5.85425 33.0635L0.942739 13.0537C-0.512525 6.8688 8.21906 4.6859 9.67432 10.8708L11.8572 19.2385L10.22 8.14215C9.49241 1.59347 18.4059 0.320112 19.3154 6.8688L20.5888 17.4195V5.77735C20.5888 -1.31706 29.6842 -1.31706 29.6842 5.77735V18.6928L31.3214 7.41452C32.2309 1.22965 41.1444 2.50301 40.2349 8.68788C39.3253 15.7823 38.2339 22.6948 37.1424 29.6073C42.7816 24.1501 45.5102 23.7862 50.2398 29.7892C47.3293 32.5178 42.4178 36.156 39.5072 38.7027C34.5957 52.5277 5.85425 52.5277 5.85425 33.0635ZM38.4158 8.50597C39.1434 4.6859 33.6862 3.77636 33.1405 7.77834L30.9576 22.331C29.8661 22.331 28.9566 22.331 27.8651 22.331V5.77735C27.8651 1.22965 22.4079 1.22965 22.4079 5.77735V22.1491C21.4983 22.1491 20.4069 22.1491 19.4974 22.331L17.4964 7.23261C16.9506 3.04873 11.4934 3.77636 12.0391 7.96025L14.222 23.4224C13.1306 23.7862 12.221 23.9681 11.1296 24.1501L7.85524 11.2346C6.9457 7.59643 1.67037 8.86979 2.76182 12.6899L7.67333 32.5178C8.21906 51.8001 34.7776 49.6172 38.052 37.0655C38.052 36.8836 46.9655 30.3349 47.6931 29.6073C43.1454 23.6043 39.3253 30.6987 34.4138 34.3369C31.1395 33.7912 28.5928 36.156 28.4108 39.6122C28.4108 40.8856 26.5918 40.8856 26.5918 39.6122C26.7737 34.7007 29.8661 32.6997 33.8681 32.3359C34.05 32.3359 34.4138 31.7902 35.1414 31.2445C36.2329 23.7862 37.3243 16.1461 38.4158 8.50597Z" fill="#EE58B6"/>
</svg>
