<svg width="36" height="49" viewBox="0 0 36 49" fill="none" xmlns="http://www.w3.org/2000/svg">
<path d="M35.7348 33.9724C35.7348 53.0723 1.53685 53.7999 1.53685 33.0628C0.627333 29.4248 -0.464091 27.2419 1.90066 24.6953C3.5378 23.0581 4.99303 21.9667 7.72159 22.3305C7.17588 17.7829 6.44826 12.8715 5.90255 8.14199C4.99303 1.59344 13.9063 0.320115 14.8158 6.86866L16.2711 17.4191V5.77724C16.2711 -1.31702 25.1844 -1.31702 25.1844 5.77724V18.6924L27.0034 7.41437C27.9129 1.22964 36.8262 2.50296 35.9167 8.6877L33.552 23.6038C36.8262 25.241 35.7348 31.0619 35.7348 33.9724ZM7.17588 23.9676C5.53874 23.6038 1.90066 26.8781 2.26447 28.3333L15.1797 30.5162C19.1815 31.2438 20.0911 25.9686 16.0892 25.241L7.17588 23.9676ZM2.81018 30.3343L3.35589 32.5171C3.90161 52.1628 33.9158 50.1618 33.9158 33.9724C33.9158 22.8762 35.1891 25.0591 21.5463 25.0591C21.5463 31.6076 21.7282 29.7886 28.8225 30.5162C30.0958 30.5162 29.732 32.699 29.732 33.4266C29.732 35.6095 24.2749 33.0628 23.911 39.7933C23.911 40.8847 22.092 40.8847 22.092 39.6114C22.2739 35.9733 24.093 33.4266 27.9129 32.699V32.3352C22.6377 32.3352 20.6368 31.7895 20.0911 29.7886C19.3634 31.6076 17.5444 32.8809 14.9977 32.3352L2.81018 30.3343ZM19.7273 25.4229C19.7273 24.6953 19.7273 23.9676 19.7273 23.24C23.7291 23.24 27.9129 23.0581 31.9148 23.24L34.0977 8.5058C34.6434 4.68581 29.3682 3.77629 28.8225 7.77818L26.6396 22.3305C25.5482 22.3305 24.4568 22.3305 23.3653 22.3305V5.77724C23.3653 1.22964 18.0901 1.22964 18.0901 5.77724V22.1486C16.9987 22.1486 16.0892 22.1486 14.9977 22.3305L12.9968 7.23247C12.4511 3.04868 7.17588 3.77629 7.72159 7.96008C8.2673 12.6896 8.99492 17.601 9.72253 22.5124C14.9978 23.24 19.1815 23.0581 19.7273 25.4229Z" fill="#EE58B6"/>
</svg>
