<svg width="41" height="49" viewBox="0 0 41 49" fill="none" xmlns="http://www.w3.org/2000/svg">
<path d="M40.442 33.9724C40.442 53.0723 6.06215 53.7999 6.06215 33.0628L1.15074 13.0534C-0.304489 6.86866 8.4269 4.68581 9.88214 10.8705L12.065 19.2381L10.4278 8.14199C9.70023 1.59344 18.6135 0.320115 19.523 6.86866L20.7964 17.4191V5.77724C20.7964 -1.31702 29.8916 -1.31702 29.8916 5.77724V18.6924L31.5287 7.41437C32.4382 1.22964 41.3515 2.50296 40.442 8.6877L38.2592 23.6038C41.3515 25.241 40.442 31.0619 40.442 33.9724ZM7.88119 32.5171C8.4269 52.1628 38.623 50.1618 38.623 33.9724C38.623 22.8762 39.8963 25.0591 26.0716 25.0591C26.0716 31.6076 26.2535 29.7886 33.3478 30.5162C34.803 30.5162 34.2573 32.699 34.2573 33.4266C34.2573 35.6095 28.8002 33.0628 28.6182 39.7933C28.4363 40.8847 26.7992 40.8847 26.7992 39.6114C26.9811 35.9733 28.8002 33.4266 32.4382 32.699V32.3352C23.5249 32.3352 24.2526 31.0619 24.2526 23.24C28.4363 23.24 32.4382 23.0581 36.4401 23.24L38.623 8.5058C39.3506 4.68581 33.8935 3.77629 33.3478 7.77818L31.1649 22.3305C30.0735 22.3305 29.164 22.3305 28.0725 22.3305V5.77724C28.0725 1.22964 22.6154 1.22964 22.6154 5.77724V22.1486C21.7059 22.1486 20.6145 22.1486 19.705 22.3305L17.704 7.23247C17.1583 3.04868 11.7012 3.77629 12.2469 7.96008L14.4297 23.4219C13.3383 23.7857 12.4288 23.9676 11.3374 24.1495L8.0631 11.2344C7.15358 7.59628 1.87836 8.8696 2.96978 12.6896L7.88119 32.5171Z" fill="#EE58B6"/>
</svg>
